<?xml version="1.0" encoding="UTF-8" standalone="no"?><!DOCTYPE svg PUBLIC "-//W3C//DTD SVG 1.1//EN" "http://www.w3.org/Graphics/SVG/1.1/DTD/svg11.dtd"><svg width="100%" height="100%" viewBox="0 0 143 133" version="1.1" xmlns="http://www.w3.org/2000/svg" xmlns:xlink="http://www.w3.org/1999/xlink" xml:space="preserve" style="fill-rule:evenodd;clip-rule:evenodd;stroke-linejoin:round;stroke-miterlimit:1.41421;"><path d="M26.289,14.616l-0.446,0.04c0,0 -0.301,-1.082 -0.317,-1.637c-0.017,-0.617 -1.498,-0.713 -1.921,-1.552c-1.671,-3.313 1.265,-4.57 2.355,-5.419c0.514,-0.401 5.206,-3.058 5.64,-3.478c0.905,-0.875 2.582,-2.212 3.783,-2.419c3.416,-0.589 5.926,0.554 8.089,3.244c0.852,1.061 1.658,2.313 2.847,2.979c0.555,0.311 1.829,0.776 2.314,1.245c1.27,1.228 2.222,1.29 2.532,2.996c0.309,1.703 -0.675,1.843 -0.953,2.449c-0.368,0.805 -1.636,2.913 -1.636,2.913l-0.075,-0.027c-0.085,1.423 -0.374,2.614 -0.743,2.949c0,0 3.412,0.064 2.046,1.338c-1.296,1.211 -1.547,4.94 -1.547,4.94l-0.945,1.636l-1.479,-0.136l-0.947,2.495l-1.179,1.677l2.5,3.366c6.961,1.167 13.137,2.97 17.455,6.28c0,0 4.216,2.925 4.315,8.491c0.099,5.566 5.752,10.434 6.149,13.488c0.397,3.054 2.032,6.857 4.308,8.828c0.202,0.175 0.68,0.376 0.51,0.497c-1.334,0.951 -0.259,2.24 -0.259,2.24c0,0 4.721,15.68 5.403,17.384c2.04,5.1 0.678,5.746 1.981,7.877c1.165,1.905 3.315,6.235 3.315,6.235c0,0 2.198,4.24 2.651,7.21c0.526,3.447 1.305,3.15 1.305,3.15l1.605,1.749l2.446,1.288c5.336,-5.105 8.812,-9.598 14.123,-9.064c0,0 1.766,-2.57 4.164,-2.602c1.113,-0.015 -1.162,-3.377 -1.162,-3.377l-1.388,-0.37c0,0 -1.928,-3.615 -2.126,-9.198c-0.061,-1.735 -0.185,-3.428 0.191,-3.981c2.237,-3.289 8.607,-10.068 14.946,-2.952c4.267,4.79 1.854,4.963 3.306,8.706c0.811,2.091 0.572,4.048 -1.314,6.262c-0.668,0.784 -3.58,3.101 -1.879,5.951c1.862,3.117 9.348,7.541 12.104,12.013c2.939,4.768 3.913,12.008 3.913,12.008l-47.296,0.243c0,0 -5.067,-4.722 -6.033,-5.051c-1.173,-0.398 -4.346,-6.337 -5.201,-9.765c-0.229,-0.918 -1.379,-1.635 -1.379,-1.635l0.009,-2.054l-1.406,0.378c0,0 -4.623,-6.08 -1.557,-13.541c0.077,-0.186 -0.131,-0.382 -0.199,-0.575c-1.497,-4.189 -1.729,-4.632 -2.941,-7.426c-0.394,-0.91 -2.568,-4.056 -2.641,-4.219c-4.544,-10.24 -7.503,-11.399 -7.503,-11.399l0.602,13.319c0,0 0.516,4.885 3.605,7.792c0.893,0.841 -1.564,8.595 -1.564,8.595c0,0 -1.646,9.819 -0.478,17.919c0.44,3.046 0.506,7.134 0.506,7.134l-51.57,0.298c0,0 0.054,-14.422 -1.147,-14.669c-1.34,-0.275 -3.131,-12.052 -5.265,-13.151c-2.134,-1.098 0.749,-2.736 1.899,-3.01c1.15,-0.274 -1.869,-3.669 -0.217,-6.082c0.659,-0.962 0.42,-2.434 0.517,-3.756c0.148,-1.993 0.03,-3.942 -0.525,-4.226c-0.925,-0.473 -1.865,8.778 -3.535,11.776c-1.152,2.066 -1.327,8.172 0.86,10.708c0.994,1.154 0.478,3.369 0.413,6.595c-0.066,3.226 0.727,3.966 0.935,4.505c0.208,0.539 -2.677,1.637 -3.527,-3.463c-0.85,-5.1 -0.556,-2.016 -1.132,-0.588c-0.577,1.428 1.774,6.222 2.425,6.111c0.651,-0.111 0.76,3.253 -0.315,2.95c-1.076,-0.303 -4.707,-1.859 -6.447,-3.752c-1.587,-1.727 -2.616,-9.59 -1.159,-11.817c1.333,-2.038 -1.957,-18.925 -0.719,-22.585c1.259,-3.723 1.966,-7.944 0.841,-8.947c-0.948,-0.844 -0.101,-1.762 0.577,-2.841c0.349,-0.555 2.062,-7.596 3.042,-15.864c1.721,-14.521 5.569,-16.387 6.258,-16.139c0.7,-2.859 7.119,-4.784 15.805,-7.408c0,0 1.008,-4.378 2.256,-4.844c1.248,-0.465 -0.69,-3.7 -0.586,-5.583c0.104,-1.882 -1.914,-1.39 -1.914,-1.39c0,0 -3.344,-10.109 0.575,-7.202c-0.005,-0.008 -0.997,-1.702 -0.849,-3.053Z" style="fill:#fff;"/></svg>